<?xml version="1.0" encoding="UTF-8" standalone="no"?>
<!-- Created with Inkscape (http://www.inkscape.org/) -->

<svg
   xmlns:dc="http://purl.org/dc/elements/1.1/"
   xmlns:cc="http://creativecommons.org/ns#"
   xmlns:rdf="http://www.w3.org/1999/02/22-rdf-syntax-ns#"
   xmlns:svg="http://www.w3.org/2000/svg"
   xmlns="http://www.w3.org/2000/svg"
   xmlns:sodipodi="http://sodipodi.sourceforge.net/DTD/sodipodi-0.dtd"
   xmlns:inkscape="http://www.inkscape.org/namespaces/inkscape"
   width="74.519394mm"
   height="118.74934mm"
   viewBox="0 0 74.519394 118.74934"
   version="1.1"
   id="svg1677"
   inkscape:version="0.92.4 (unknown)"
   sodipodi:docname="cat.svg">
  <defs
     id="defs1671" />
  <sodipodi:namedview
     id="base"
     pagecolor="#ffffff"
     bordercolor="#666666"
     borderopacity="1.0"
     inkscape:pageopacity="0.0"
     inkscape:pageshadow="2"
     inkscape:zoom="0.35"
     inkscape:cx="-442.03306"
     inkscape:cy="321.55106"
     inkscape:document-units="mm"
     inkscape:current-layer="layer1"
     showgrid="false"
     fit-margin-top="0"
     fit-margin-left="0"
     fit-margin-right="0"
     fit-margin-bottom="0"
     inkscape:window-width="1920"
     inkscape:window-height="1031"
     inkscape:window-x="0"
     inkscape:window-y="25"
     inkscape:window-maximized="1" />
  <metadata
     id="metadata1674">
    <rdf:RDF>
      <cc:Work
         rdf:about="">
        <dc:format>image/svg+xml</dc:format>
        <dc:type
           rdf:resource="http://purl.org/dc/dcmitype/StillImage" />
        <dc:title></dc:title>
      </cc:Work>
    </rdf:RDF>
  </metadata>
  <g
     inkscape:label="Layer 1"
     inkscape:groupmode="layer"
     id="layer1"
     transform="translate(-63.281962,-115.16104)">
    <g
       transform="translate(-216.97428,182.63161)"
       id="g950">
      <path
         sodipodi:nodetypes="csssssssssssssssssscssssssssssssssssssssssssssssssssssssscsssssc"
         inkscape:connector-curvature="0"
         id="cat"
         d="m 280.91808,-67.380418 c 0,0 -0.34954,0.897338 -0.61282,2.641254 -0.29045,1.92395 0.77508,6.435605 1.48045,8.248995 0.36109,0.928299 0.34584,1.545237 0.39241,2.671713 0.0617,1.492144 -0.52503,2.843347 -0.80281,4.310704 -0.23259,1.228613 0.24394,3.327387 0.53456,4.543581 0.3622,1.515762 0.66016,1.966831 1.60362,3.207235 0.71719,0.94291 1.41567,1.363805 1.87087,3.474503 0.28173,1.306313 -0.76205,2.173905 -1.06908,3.474504 -0.27461,1.16329 -0.66082,2.244396 -0.93543,3.407686 -0.36843,1.56072 -0.10817,3.617715 0.4009,5.14494 0.77921,2.337654 1.91068,4.872953 2.67269,7.216269 1.38193,4.249679 2.95925,8.02417 4.27632,12.2943934 1.12265,3.639857 1.89619,7.42398288 2.13815,11.2253445 0.36872,5.7929501 0.14561,11.2381861 0.40093,15.2343601 0.10474,1.639397 -3.66862,2.172476 -4.94451,3.207231 -0.83608,0.678069 -1.00927,1.134604 -0.7694,2.184019 0.3101,1.356643 1.17967,1.918391 2.45131,2.4837 1.72693,0.767707 3.16592,0.996931 5.0457,0.801793 2.07439,-0.21534 6.21064,-1.901916 6.21064,-1.901916 0,0 0.52097,2.585529 1.63465,3.28552 1.66113,1.044085 2.88294,0.351821 4.84052,0.220036 0.9938,-0.0669 3.45797,-0.657723 4.45184,-0.723553 5.60674,-0.37137 11.40836,0.810608 17.02699,0.877416 3.74257,0.0445 7.57263,-0.97037 11.22532,-0.153863 1.74971,0.391123 4.12472,1.693932 4.81084,3.350346 0.43125,1.04113 -0.30603,2.377977 -1.06907,3.207253 -1.83764,1.997154 -4.79373,2.846143 -7.48356,3.207226 -6.41847,0.861615 -12.80849,-1.944055 -19.24341,-2.672688 -5.06525,-0.573544 -10.13906,-1.490166 -15.23436,-1.336358 -4.23148,0.127732 -8.90985,-0.270612 -12.56165,1.870895 -2.13666,1.252989 -3.86739,3.49705 -4.54359,5.879915 -0.46466,1.637407 -0.2672,3.576714 0.53454,5.078122 0.65551,1.22757 1.83166,2.461883 3.20723,2.672688 1.61899,0.248111 2.21509,-1.333947 3.22066,-2.626821 0.77352,-0.994524 1.03195,-2.034023 1.85746,-2.985838 1.4593,-1.682581 4.20962,-1.555892 6.41448,-1.870869 3.61597,-0.516561 7.32797,-0.405814 10.95803,0 4.81131,0.537867 9.36979,2.165085 14.16529,2.82925 5.03707,0.697622 10.42169,0.963534 15.42336,0.04587 3.25639,-0.597457 6.16654,-1.004514 8.89818,-2.875117 2.18303,-1.494921 3.27722,-3.16823 4.28973,-5.612659 0.78414,-1.89309 0.88428,-4.161666 0.37798,-6.147197 -0.55164,-2.163361 -1.85029,-4.269178 -3.39621,-5.879941 -2.51795,-2.623552 -5.66515,-3.025543 -8.22052,-5.612659 -0.86975,-0.880551 -1.60585,-1.998263 -1.87087,-3.207227 -1.18828,-5.420663 1.92518,-11.0306681 1.60361,-16.57072142 -0.26934,-4.64025718 -1.41577,-9.23969878 -2.93997,-13.63075058 -1.65932,-4.780311 -3.96139,-9.364065 -6.68173,-13.630735 -1.60073,-2.510637 -3.7163,-4.331444 -6.17962,-6.004069 -3.47352,-2.358559 -7.61021,-3.011644 -11.46018,-4.686714 -1.31725,-0.573118 -2.54313,-0.738302 -3.55277,-1.76018 -1.934,-1.957438 -3.38216,-4.966279 -4.19804,-7.594251 -0.55723,-1.794844 -0.11183,-3.781464 -0.53454,-5.612662 -0.17121,-0.741681 -0.80723,-1.37699 -0.80182,-2.138156 0.0156,-2.200303 0.86353,-4.173982 1.27151,-6.336187 0.34689,-1.838446 1.03764,-4.299699 0.66146,-6.132377 -0.13642,-0.664633 0.0491,-0.257197 -0.61283,-0.406229 -1.54525,0.02881 -2.74801,0.969034 -4.26008,2.308151 -0.80311,0.71125 -2.16614,1.737707 -3.16138,2.138156 -2.1505,0.865282 -3.40956,0.164842 -6.19307,0.267268 -1.78282,0.0656 -4.1391,1.283299 -6.47931,-0.488681 -3.28447,-2.486962 -6.12345,-5.01489 -6.5396,-4.411915 z"
         style="fill:#010101;fill-opacity:1;stroke:none;stroke-width:0.26458332px;stroke-linecap:butt;stroke-linejoin:miter;stroke-opacity:1" />
      <g
         transform="matrix(0.15684668,0,0,0.15684668,301.73554,3.6133879)"
         id="g2334">
        <path
           style="fill:#826f6e;fill-opacity:1;stroke:none;stroke-width:0.26458332px;stroke-linecap:butt;stroke-linejoin:miter;stroke-opacity:1"
           d="m -42.333333,-350.47321 c 0,0 3.723024,-5.08326 5.669643,-7.55953 1.714792,-2.18137 2.8675,-5.07566 5.291666,-6.42559 4.109823,-2.28861 9.328355,-2.55539 13.985119,-1.88988 4.913587,0.70221 10.5929875,2.1041 13.6071432,6.04761 1.0063358,1.31662 1.3747051,3.37637 0.7559524,4.91369 -1.0067627,2.50135 -4.2704204,3.29335 -6.4255953,4.9137 -2.8802223,2.16547 -5.2345563,5.41516 -8.6934523,6.42559 -5.333604,1.55807 -11.232508,0.18202 -16.630952,-1.13393 -3.069969,-0.74835 -8.693451,-3.77976 -8.693451,-3.77976 z"
           id="path2318"
           inkscape:connector-curvature="0"
           sodipodi:nodetypes="csssssssscc" />
        <path
           style="fill:#f2efcd;fill-opacity:1;stroke:none;stroke-width:0.26458332px;stroke-linecap:butt;stroke-linejoin:miter;stroke-opacity:1"
           d="m -34.962798,-354.06399 c -0.03985,2.23223 0.430851,4.73573 1.889882,6.4256 1.768347,2.04813 4.712927,2.89286 7.370535,3.40178 2.2926,0.43902 4.795466,0.4104 6.99256,-0.37797 2.798795,-1.00427 5.543466,-2.81004 7.181547,-5.29167 1.212155,-1.83637 1.6442365,-4.22922 1.511905,-6.4256 -0.121059,-2.00927 -0.833425,-4.08828 -2.078869,-5.66964 -0.983741,-1.24907 -2.467486,-2.12225 -3.96875,-2.64583 -2.865045,-0.99922 -6.058706,-1.1171 -9.071428,-0.75595 -2.373538,0.28452 -5.302198,1.90041 -6.99256,3.59077 -2.025609,2.451 -2.761693,5.68746 -2.834822,7.74851 z"
           id="path2327"
           inkscape:connector-curvature="0"
           sodipodi:nodetypes="csssssssscc" />
        <ellipse
           style="fill:#d0ba64;fill-opacity:1;stroke:none;stroke-width:0.96716976;stroke-linecap:round;stroke-linejoin:round;stroke-miterlimit:4;stroke-dasharray:none;stroke-opacity:1"
           id="path2320"
           cx="-23.338247"
           cy="-355.95386"
           rx="7.844789"
           ry="8.3154764" />
        <path
           style="fill:#d4d3cc;fill-opacity:1;stroke:none;stroke-width:0.96716976;stroke-linecap:round;stroke-linejoin:round;stroke-miterlimit:4;stroke-dasharray:none;stroke-opacity:1"
           d="m -28.515806,-357.99351 c -10e-7,1.64638 0.395824,2.82412 -0.470687,2.82412 -0.866511,0 -1.568956,-1.33464 -1.568957,-2.98101 -2e-6,-1.64638 0.702445,-2.98103 1.568957,-2.98103 0.866512,0 0.470688,1.49155 0.470687,3.13792 z"
           id="path2322"
           inkscape:connector-curvature="0"
           sodipodi:nodetypes="sssss" />
        <path
           style="fill:none;stroke:#2a2928;stroke-width:1.38226414;stroke-linecap:round;stroke-linejoin:miter;stroke-miterlimit:4;stroke-dasharray:none;stroke-opacity:1"
           d="m -23.652039,-362.3866 c -0.627583,4.0793 -0.659717,2.9142 -0.627583,4.39309 0.03699,1.70231 0.941375,5.02066 0.941375,5.02066"
           id="path2324"
           inkscape:connector-curvature="0"
           sodipodi:nodetypes="csc" />
      </g>
      <g
         id="g2346"
         transform="matrix(-0.15684668,0,0,0.15684668,282.86482,3.3461184)">
        <path
           sodipodi:nodetypes="csssssssscc"
           inkscape:connector-curvature="0"
           id="path2336"
           d="m -42.333333,-350.47321 c 0,0 3.723024,-5.08326 5.669643,-7.55953 1.714792,-2.18137 2.8675,-5.07566 5.291666,-6.42559 4.109823,-2.28861 9.328355,-2.55539 13.985119,-1.88988 4.913587,0.70221 10.5929875,2.1041 13.6071432,6.04761 1.0063358,1.31662 1.3747051,3.37637 0.7559524,4.91369 -1.0067627,2.50135 -4.2704204,3.29335 -6.4255953,4.9137 -2.8802223,2.16547 -5.2345563,5.41516 -8.6934523,6.42559 -5.333604,1.55807 -11.232508,0.18202 -16.630952,-1.13393 -3.069969,-0.74835 -8.693451,-3.77976 -8.693451,-3.77976 z"
           style="fill:#826f6e;fill-opacity:1;stroke:none;stroke-width:0.26458332px;stroke-linecap:butt;stroke-linejoin:miter;stroke-opacity:1" />
        <path
           sodipodi:nodetypes="csssssssscc"
           inkscape:connector-curvature="0"
           id="path2338"
           d="m -34.962798,-354.06399 c -0.03985,2.23223 0.430851,4.73573 1.889882,6.4256 1.768347,2.04813 4.712927,2.89286 7.370535,3.40178 2.2926,0.43902 4.795466,0.4104 6.99256,-0.37797 2.798795,-1.00427 5.543466,-2.81004 7.181547,-5.29167 1.212155,-1.83637 1.6442365,-4.22922 1.511905,-6.4256 -0.121059,-2.00927 -0.833425,-4.08828 -2.078869,-5.66964 -0.983741,-1.24907 -2.467486,-2.12225 -3.96875,-2.64583 -2.865045,-0.99922 -6.058706,-1.1171 -9.071428,-0.75595 -2.373538,0.28452 -5.302198,1.90041 -6.99256,3.59077 -2.025609,2.451 -2.761693,5.68746 -2.834822,7.74851 z"
           style="fill:#f2efcd;fill-opacity:1;stroke:none;stroke-width:0.26458332px;stroke-linecap:butt;stroke-linejoin:miter;stroke-opacity:1" />
        <ellipse
           ry="8.3154764"
           rx="7.844789"
           cy="-355.95386"
           cx="-23.338247"
           id="ellipse2340"
           style="fill:#d0ba64;fill-opacity:1;stroke:none;stroke-width:0.96716976;stroke-linecap:round;stroke-linejoin:round;stroke-miterlimit:4;stroke-dasharray:none;stroke-opacity:1" />
        <path
           sodipodi:nodetypes="sssss"
           inkscape:connector-curvature="0"
           id="path2342"
           d="m -28.515806,-357.99351 c -10e-7,1.64638 0.395824,2.82412 -0.470687,2.82412 -0.866511,0 -1.568956,-1.33464 -1.568957,-2.98101 -2e-6,-1.64638 0.702445,-2.98103 1.568957,-2.98103 0.866512,0 0.470688,1.49155 0.470687,3.13792 z"
           style="fill:#d4d3cc;fill-opacity:1;stroke:none;stroke-width:0.96716976;stroke-linecap:round;stroke-linejoin:round;stroke-miterlimit:4;stroke-dasharray:none;stroke-opacity:1" />
        <path
           sodipodi:nodetypes="csc"
           inkscape:connector-curvature="0"
           id="path2344"
           d="m -23.652039,-362.3866 c -0.627583,4.0793 -0.659717,2.9142 -0.627583,4.39309 0.03699,1.70231 0.941375,5.02066 0.941375,5.02066"
           style="fill:none;stroke:#2a2928;stroke-width:1.38226414;stroke-linecap:round;stroke-linejoin:miter;stroke-miterlimit:4;stroke-dasharray:none;stroke-opacity:1" />
      </g>
      <path
         sodipodi:nodetypes="csssscccc"
         inkscape:connector-curvature="0"
         id="path2350"
         d="m 289.27559,-46.82391 c 0.1403,0.210164 0.3829,0.190871 0.56326,0.367856 0.13609,0.13355 0.23299,0.243929 0.34119,0.400933 0.12158,0.176411 0.18404,0.402447 0.39722,0.423711 0.28853,0.02878 0.33812,-0.06427 0.48768,-0.312687 0.0778,-0.129143 0.15033,-0.233861 0.84488,-0.544348 0.70339,-0.231845 1.34471,-0.146603 0.84781,-0.945971 -0.83731,-0.485107 -2.91854,-0.369119 -3.35342,0.02954 -0.17263,0.164199 -0.13133,0.438231 -0.12862,0.580966 z"
         style="fill:#787367;fill-opacity:1;stroke:none;stroke-width:0.04476838px;stroke-linecap:butt;stroke-linejoin:miter;stroke-opacity:1" />
      <path
         inkscape:connector-curvature="0"
         id="path2352"
         d="m 290.10815,-36.80589 3.07027,0.701525 3.83785,-1.202614 -1.53515,1.102397 1.53515,-0.300655 -1.53515,1.202618 1.31584,-0.400871 -1.20619,1.002177 0.98688,-0.200435 -2.30271,1.603486 1.97376,-0.801743 -1.97376,1.703706 -0.32894,1.102394 -1.09655,-1.102394 -3.28959,-0.901963 2.19306,0.300654 -2.08339,-1.102397 1.53514,0.501092 -1.31584,-1.302835 1.64478,0.90196 -1.53513,-1.603485 1.53513,0.90196 c 0,0 -1.86408,-1.90414 -1.31582,-1.603486 0.54825,0.300654 -0.10966,-0.501091 -0.10966,-0.501091 z"
         style="fill:#d5cbb4;fill-opacity:1;stroke:#000000;stroke-width:0.29352182px;stroke-linecap:butt;stroke-linejoin:miter;stroke-opacity:1" />
    </g>
  </g>
</svg>
