<?xml version="1.0" encoding="UTF-8" standalone="no"?>
<svg
   xmlns:dc="http://purl.org/dc/elements/1.1/"
   xmlns:cc="http://creativecommons.org/ns#"
   xmlns:rdf="http://www.w3.org/1999/02/22-rdf-syntax-ns#"
   xmlns:svg="http://www.w3.org/2000/svg"
   xmlns="http://www.w3.org/2000/svg"
   xmlns:sodipodi="http://sodipodi.sourceforge.net/DTD/sodipodi-0.dtd"
   xmlns:inkscape="http://www.inkscape.org/namespaces/inkscape"
   width="156.60001"
   height="32"
   version="1.1"
   id="svg911"
   sodipodi:docname="contentful-light.svg"
   inkscape:version="0.92.4 (unknown)">
  <metadata
     id="metadata917">
    <rdf:RDF>
      <cc:Work
         rdf:about="">
        <dc:format>image/svg+xml</dc:format>
        <dc:type
           rdf:resource="http://purl.org/dc/dcmitype/StillImage" />
        <dc:title></dc:title>
      </cc:Work>
    </rdf:RDF>
  </metadata>
  <defs
     id="defs915" />
  <sodipodi:namedview
     pagecolor="#ffffff"
     bordercolor="#666666"
     borderopacity="1"
     objecttolerance="10"
     gridtolerance="10"
     guidetolerance="10"
     inkscape:pageopacity="0"
     inkscape:pageshadow="2"
     inkscape:window-width="1920"
     inkscape:window-height="1031"
     id="namedview913"
     showgrid="false"
     inkscape:zoom="9.0955414"
     inkscape:cx="63.822479"
     inkscape:cy="16"
     inkscape:window-x="0"
     inkscape:window-y="25"
     inkscape:window-maximized="1"
     inkscape:current-layer="svg911"
     fit-margin-top="0"
     fit-margin-left="0"
     fit-margin-right="0"
     fit-margin-bottom="0" />
  <path
     d="M 9.7,22.3 C 8,20.7 7,18.5 7,16 7,13.5 8,11.3 9.6,9.7 11,8.3 11,6.1 9.6,4.7 8.2,3.3 6,3.3 4.6,4.7 1.8,7.6 0,11.6 0,16 c 0,4.4 1.8,8.4 4.7,11.3 1.4,1.4 3.6,1.4 5,0 1.3,-1.4 1.3,-3.6 0,-5 z"
     id="path899"
     inkscape:connector-curvature="0"
     style="fill:#ffd85f" />
  <path
     d="M 9.7,9.7 C 11.3,8 13.5,7 16,7 c 2.5,0 4.7,1 6.3,2.6 1.4,1.4 3.6,1.4 5,0 1.4,-1.4 1.4,-3.6 0,-5 C 24.4,1.8 20.4,0 16,0 11.6,0 7.6,1.8 4.7,4.7 c -1.4,1.4 -1.4,3.6 0,5 1.4,1.3 3.6,1.3 5,0 z"
     id="path901"
     inkscape:connector-curvature="0"
     style="fill:#3bb4e7" />
  <path
     d="M 22.3,22.3 C 20.7,24 18.5,25 16,25 13.5,25 11.3,24 9.7,22.4 8.3,21 6.1,21 4.7,22.4 c -1.4,1.4 -1.4,3.6 0,5 2.9,2.8 6.9,4.6 11.3,4.6 4.4,0 8.4,-1.8 11.3,-4.7 1.4,-1.4 1.4,-3.6 0,-5 -1.4,-1.3 -3.6,-1.3 -5,0 z"
     id="path903"
     inkscape:connector-curvature="0"
     style="fill:#ed5c68" />
  <circle
     cx="7.1999998"
     cy="7.1999998"
     r="3.5"
     id="circle905"
     style="fill:#308bc5" />
  <circle
     cx="7.1999998"
     cy="24.799999"
     r="3.5"
     id="circle907"
     style="fill:#d5465f" />
  <path
     d="m 43,19.3 c 1,-0.8 1.2,-0.3 2,0.5 0.4,0.4 1.6,1.2 0.8,1.8 -1.6,1.3 -3,1.9 -5.1,1.9 -4.6,0 -7.9,-3.5 -7.7,-8 0.1,-2.1 0.9,-4 2.5,-5.3 1.5,-1.2 3.3,-1.8 5.2,-1.7 1,0 1.8,0.2 2.7,0.5 0.6,0.2 1.2,0.5 1.7,0.9 1,0.8 0.5,1.2 -0.2,2 -0.2,0.2 -0.3,0.4 -0.5,0.5 -0.4,0.4 -0.7,0.7 -1.2,0.3 -1,-0.7 -2.4,-1.1 -3.6,-0.8 -4,1 -3.8,8.1 1.1,8.1 0.8,0.1 1.7,-0.2 2.3,-0.7 z m 111.1,3.9 c -0.7,0 -1.2,-0.5 -1.2,-1.2 V 6.3 c 0,-0.7 0.5,-1.2 1.2,-1.2 h 1.3 c 0.7,0 1.2,0.5 1.2,1.2 V 22 c 0,0.7 -0.5,1.2 -1.2,1.2 z m -6.9,-1.8 c -1.4,1.3 -2.8,2 -4.8,2 -4.1,0 -6,-3.4 -6,-7.1 V 9.9 c 0,-0.7 0.5,-1.2 1.2,-1.2 h 1.3 c 0.7,0 1.2,0.5 1.2,1.2 v 6.4 c 0,2.1 1.1,3.7 3.4,3.7 2.2,0 3.6,-1.9 3.6,-3.9 V 9.9 c 0,-0.7 0.5,-1.2 1.2,-1.2 h 1.3 c 0.7,0 1.2,0.5 1.2,1.2 V 22 c 0,0.7 -0.5,1.2 -1.2,1.2 h -1.1 c -0.7,0 -1.1,-0.6 -1.2,-1.2 z M 131.6,8.8 h 2.5 c 0.7,0 1.2,0.6 1.2,1.2 v 0.8 c 0,0.7 -0.5,1.2 -1.2,1.2 h -2.5 v 10 c 0,0.7 -0.5,1.2 -1.2,1.2 h -1.3 c -0.7,0 -1.2,-0.5 -1.2,-1.2 V 8.3 c 0,-3 1.7,-5.4 4.8,-5.7 h 1.9 c 0.7,0 1.2,0.6 1.2,1.2 v 0.8 c 0,0.7 -0.5,1.2 -1.2,1.2 h -1 c -1.5,0 -2.1,1.1 -2.1,2.5 v 0.5 z m -9.1,0 h 2.8 c 0.7,0 1.2,0.5 1.2,1.2 v 0.8 c 0,0.7 -0.5,1.2 -1.2,1.2 h -2.8 v 6.1 c 0,1.2 0.6,1.8 1.8,1.8 h 0.6 c 0.7,0 1.2,0.5 1.2,1.2 V 22 c 0,0.7 -0.5,1.2 -1.2,1.2 h -1.7 c -3,-0.2 -4.3,-2.1 -4.3,-5.1 V 6.3 c 0,-0.7 0.5,-1.2 1.2,-1.2 h 1.3 c 0.7,0 1.2,0.5 1.2,1.2 v 2.5 z m -40.1,0 h 2.8 c 0.7,0 1.2,0.5 1.2,1.2 v 0.8 c 0,0.7 -0.5,1.2 -1.2,1.2 h -2.8 v 6.1 c 0,1.2 0.6,1.9 1.8,1.9 h 0.6 c 0.7,0 1.2,0.5 1.2,1.2 V 22 c 0,0.7 -0.5,1.2 -1.2,1.2 H 84 c -3.3,0 -5.2,-1.4 -5.2,-5.1 V 6.3 c 0,-0.7 0.5,-1.2 1.2,-1.2 h 1.3 c 0.7,0 1.2,0.5 1.2,1.2 v 2.5 z m -16.3,1.7 c 1.3,-1.3 2.8,-2 4.6,-2 4.1,0 6.2,3.3 6.2,7.1 V 22 c 0,0.7 -0.5,1.2 -1.2,1.2 h -1.3 c -0.7,0 -1.2,-0.5 -1.2,-1.2 v -6.4 c 0,-2.1 -1.1,-3.7 -3.4,-3.7 -2.2,0 -3.6,1.8 -3.6,3.9 V 22 c 0,0.7 -0.5,1.2 -1.2,1.2 H 63.7 C 63,23.2 62.5,22.7 62.5,22 V 9.9 c 0,-0.7 0.5,-1.2 1.2,-1.2 h 1.1 c 0.7,0 1.1,0.6 1.2,1.2 z m 40.2,0 c 1.3,-1.3 2.8,-2 4.6,-2 4.1,0 6.2,3.3 6.2,7.1 V 22 c 0,0.7 -0.5,1.2 -1.2,1.2 h -1.3 c -0.7,0 -1.2,-0.5 -1.2,-1.2 v -6.4 c 0,-2.1 -1.1,-3.7 -3.4,-3.7 -2.2,0 -3.6,1.8 -3.6,3.9 V 22 c 0,0.7 -0.5,1.2 -1.2,1.2 h -1.3 c -0.7,0 -1.2,-0.5 -1.2,-1.2 V 9.9 c 0,-0.7 0.5,-1.2 1.2,-1.2 h 1.1 c 0.7,0 1.1,0.6 1.2,1.2 z M 53.8,8.4 c -4.4,0 -7.5,3.2 -7.5,7.6 0,4.4 3.1,7.6 7.5,7.6 4.5,0 7.6,-3.1 7.6,-7.6 0,-4.4 -3.2,-7.6 -7.6,-7.6 z m 36.6,8.9 c 0.3,2 2.3,2.9 4.2,2.9 0.9,0 1.9,-0.2 2.7,-0.6 0.1,-0.1 0.3,-0.1 0.4,-0.2 0.5,-0.3 0.9,-0.4 1.3,0 l 0.7,0.7 0.6,0.6 c 0.6,0.8 0.2,1 -0.5,1.4 -1.5,1 -3.4,1.5 -5.2,1.5 -4.8,0 -8,-2.9 -8,-7.7 0,-4.6 3.2,-7.6 7.7,-7.6 4.7,0 7.3,2.7 7.4,7.4 0,1.3 0.1,1.7 -1.2,1.7 H 90.4 Z M 53.8,11.8 c 2.3,0 3.8,2 3.8,4.2 0,2.3 -1.4,4.1 -3.8,4.1 -2.4,0 -3.8,-1.8 -3.8,-4.1 0,-2.3 1.5,-4.2 3.8,-4.2 z m 36.7,2.4 H 98 c -0.3,-1.9 -1.8,-2.6 -3.6,-2.6 -1.9,0 -3.4,0.9 -3.9,2.6 z"
     id="path909"
     inkscape:connector-curvature="0"
     style="clip-rule:evenodd;fill:#ffffff;fill-rule:evenodd" />
</svg>
