<?xml version="1.0" encoding="UTF-8" standalone="no"?>
<!-- Created with Inkscape (http://www.inkscape.org/) -->

<svg
   xmlns:dc="http://purl.org/dc/elements/1.1/"
   xmlns:cc="http://creativecommons.org/ns#"
   xmlns:rdf="http://www.w3.org/1999/02/22-rdf-syntax-ns#"
   xmlns:svg="http://www.w3.org/2000/svg"
   xmlns="http://www.w3.org/2000/svg"
   xmlns:sodipodi="http://sodipodi.sourceforge.net/DTD/sodipodi-0.dtd"
   xmlns:inkscape="http://www.inkscape.org/namespaces/inkscape"
   width="75.836914mm"
   height="143.42287mm"
   viewBox="0 0 75.836914 143.42287"
   version="1.1"
   id="svg1014"
   inkscape:version="0.92.4 (unknown)"
   sodipodi:docname="developer.svg">
  <defs
     id="defs1008" />
  <sodipodi:namedview
     id="base"
     pagecolor="#ffffff"
     bordercolor="#666666"
     borderopacity="1.0"
     inkscape:pageopacity="0.0"
     inkscape:pageshadow="2"
     inkscape:zoom="0.7"
     inkscape:cx="75.621099"
     inkscape:cy="181.68759"
     inkscape:document-units="mm"
     inkscape:current-layer="layer1"
     showgrid="false"
     fit-margin-top="0"
     fit-margin-left="0"
     fit-margin-right="0"
     fit-margin-bottom="0"
     inkscape:window-width="1920"
     inkscape:window-height="1031"
     inkscape:window-x="0"
     inkscape:window-y="25"
     inkscape:window-maximized="1" />
  <metadata
     id="metadata1011">
    <rdf:RDF>
      <cc:Work
         rdf:about="">
        <dc:format>image/svg+xml</dc:format>
        <dc:type
           rdf:resource="http://purl.org/dc/dcmitype/StillImage" />
        <dc:title></dc:title>
      </cc:Work>
    </rdf:RDF>
  </metadata>
  <g
     inkscape:label="Layer 1"
     inkscape:groupmode="layer"
     id="layer1"
     transform="translate(-67.914878,-37.81237)">
    <g
       id="g1097"
       transform="matrix(0.36467471,0,0,0.36467471,23.418107,136.91351)">
      <path
         sodipodi:nodetypes="csccsc"
         inkscape:connector-curvature="0"
         id="path1054"
         d="m 189.83447,59.696066 c 0,0 5.16048,23.358179 5.88281,35.248157 0.4975,8.189107 -1.08307,24.588787 -1.08307,24.588787 l 77.98099,-2.13815 c 0,0 -2.82259,-16.33229 -3.2492,-24.588787 -0.66224,-12.81692 1.08307,-38.486815 1.08307,-38.486815"
         style="fill:#fff0d4;fill-opacity:1;stroke:#000000;stroke-width:3.89020824;stroke-linecap:butt;stroke-linejoin:miter;stroke-miterlimit:4;stroke-dasharray:none;stroke-opacity:1" />
      <path
         sodipodi:nodetypes="sssccscssscsss"
         inkscape:connector-curvature="0"
         id="path846"
         d="m 257.93858,-177.78165 c -20.13253,-5.57641 -42.06534,-3.43436 -62.67163,0 -11.37962,1.8966 -24.59827,3.05034 -32.73898,11.2248 -15.79388,15.85941 -21.51418,63.60708 -21.51418,63.60708 v 42.092909 c 0,0 5.93303,47.257967 13.43604,69.2194848 6.74197,19.7358222 35.38464,51.3334422 35.38464,51.3334422 0,0 11.99681,15.332788 20.62579,18.82145 10.06592,4.069635 22.71369,5.513011 32.55901,0.935358 C 266.857,68.369388 280.2866,43.48469 292.0943,17.716603 c 9.35289,-20.4108865 18.22667,-70.154892 18.22667,-70.154892 0,0 6.30394,-38.363896 2.80617,-57.059281 -3.01351,-16.10709 -7.2144,-33.30292 -17.7727,-45.83454 -9.3715,-11.12303 -23.39895,-18.56709 -37.41586,-22.44954 z"
         style="fill:#fff0d4;fill-opacity:1;stroke:#000000;stroke-width:4.28132582;stroke-linecap:butt;stroke-linejoin:miter;stroke-miterlimit:4;stroke-dasharray:none;stroke-opacity:1" />
      <path
         sodipodi:nodetypes="csscscscscscscscscscscscsscscssccsscsscccccscscsccscscssc"
         inkscape:connector-curvature="0"
         id="path848"
         d="m 139.6107,-58.518366 c 0,0 -6.80419,-31.21819 -9.35398,-47.237624 -2.01484,-12.65862 -3.64511,-25.56085 -5.14476,-38.35132 -0.53762,-4.58548 2.80627,-13.56329 2.80627,-13.56329 0,0 1.52202,7.14526 3.27385,10.28938 1.39918,2.51119 5.6124,6.54781 5.6124,6.54781 0,0 -0.28311,-22.36431 3.2739,-32.73893 4.65729,-13.58437 22.91727,-36.48056 22.91727,-36.48056 0,0 -1.3722,7.44431 0,10.75707 1.68744,4.07384 7.01553,7.01549 7.01553,7.01549 0,0 0.2851,-22.83803 5.61235,-34.14202 4.27871,-9.07943 21.04646,-21.51418 21.04646,-21.51418 0,0 -1.59969,5.36631 -0.93541,7.95089 0.66764,2.59775 4.67694,6.54781 4.67694,6.54781 0,0 7.76028,-13.53656 9.35403,-21.0465 1.10037,-5.18511 0,-15.90174 0,-15.90174 0,0 16.62466,11.7487 21.98186,20.11105 2.20743,3.44574 3.74168,11.69247 3.74168,11.69247 0,0 2.92783,-2.80573 3.2739,-4.67699 0.46773,-2.52831 -1.87086,-7.48316 -1.87086,-7.48316 0,0 9.77721,8.89511 13.09561,14.49864 1.93446,3.26658 3.74153,10.75712 3.74153,10.75712 0,0 1.69421,-6.40887 3.74163,-8.8863 2.14848,-2.59968 8.41852,-5.6124 8.41852,-5.6124 0,0 -0.56197,10.05869 1.40319,14.4987 4.60096,10.39516 16.49597,15.87516 22.91726,25.25571 2.75678,4.02727 6.54776,13.09561 6.54776,13.09561 0,0 3.44026,-2.02905 4.20931,-3.74158 1.34117,-2.98658 0,-9.82171 0,-9.82171 0,0 8.09057,8.48341 11.69242,13.09556 2.90101,3.71471 6.49198,7.21075 7.95095,11.69248 2.99351,9.19584 -1e-4,32.50516 -1e-4,32.50516 l 7.48321,-8.18476 c 0,0 -3.11403,10.80755 -3.74158,16.36947 -0.97887,8.6753 1.05825,17.52512 0,26.19112 -2.35587,19.291701 -14.03097,56.591601 -14.03097,56.591601 0,0 2.73842,-32.835541 0.93541,-49.108391 -1.59063,-14.35625 -2.70902,-29.79783 -10.28934,-42.09295 -2.9019,-4.70684 -12.62793,-10.75707 -12.62793,-10.75707 l -6.08013,-0.93541 4.67709,-13.56324 v 0 l -11.22489,13.09556 c 0,0 -21.18257,7.77934 -32.27115,9.35398 -11.73073,1.66581 -35.5452,0 -35.5452,0 0,0 -11.73306,-11.98949 -14.49865,-19.64336 -2.7595,-7.637 -1.40303,-24.32036 -1.40303,-24.32036 0,0 -2.71224,14.67639 -1.87087,21.98186 0.75025,6.514 6.08018,18.70796 6.08018,18.70796 l -15.90184,-3.74158 c 0,0 -4.56894,-5.95609 -6.08017,-9.35398 -1.96704,-4.42273 -3.74154,-14.03097 -3.74154,-14.03097 0,0 0.13513,10.11883 1.40309,14.96638 0.77717,2.97089 3.74168,8.41857 3.74168,8.41857 0,0 -9.06453,1.94733 -12.62793,4.67699 -6.83384,5.2349 -11.8568,13.01929 -14.96642,21.04645 -8.39611,21.6737 -8.41853,69.219484 -8.41853,69.219484 z"
         style="fill:#000000;fill-opacity:1;stroke:#000000;stroke-width:1.30955768px;stroke-linecap:butt;stroke-linejoin:miter;stroke-opacity:1" />
      <g
         id="g1064">
        <path
           style="fill:#000000;fill-opacity:1;stroke:#000000;stroke-width:1.30955768px;stroke-linecap:butt;stroke-linejoin:miter;stroke-opacity:1"
           d="m 131.05482,-86.055903 c -1.97817,2.953818 -0.30786,7.423918 1.3228,10.582818 1.64651,3.189108 6.11592,4.183014 7.93709,7.275695 2.87631,4.884438 2.59037,10.394514 4.96074,15.543529 2.27752,4.947396 4.47466,10.662926 8.59854,14.220673 4.51732,3.89718 9.7485,7.179877 15.54349,8.59854 7.49529,1.834927 15.97716,1.470435 23.48067,-0.330726 6.37596,-1.530482 11.76909,-4.757226 16.53567,-9.259973 5.56646,-5.258334 7.60937,-12.325239 10.25221,-19.512085 1.08216,-2.942805 1.96209,-6.850482 3.96842,-9.259973 1.2054,-1.447608 3.41031,-2.083031 5.29152,-1.984283 0.98466,0.05167 1.99257,0.58423 2.64571,1.322865 2.40205,2.716415 2.31662,6.87523 3.63779,10.252108 2.14121,5.472865 3.4847,10.060798 7.27573,14.551384 4.06335,4.813175 9.61625,9.773742 15.54349,11.905674 7.1024,2.554615 14.96162,3.208044 22.48849,2.645711 6.26707,-0.468224 11.3374,-1.75966 16.53567,-5.291417 5.92694,-4.026817 11.50514,-10.380705 14.55141,-16.866374 2.21659,-4.719263 2.51999,-10.120128 3.63779,-15.212807 0.24104,-1.098074 0.0935,-2.337045 0.66145,-3.307144 1.54083,-2.63105 5.56558,-3.233683 6.94501,-5.952829 1.30053,-2.563643 0.66145,-8.598531 0.66145,-8.598531 l -1.98436,-2.314984 -8.26776,-0.992179 H 290.7893 c 0,0 -22.44058,-0.987972 -33.40211,0.992179 -5.72901,1.034893 -10.93817,4.021724 -16.53562,5.622098 -3.26509,0.933527 -6.55577,1.861857 -9.92134,2.314985 -2.84265,0.382597 -5.76113,0.750197 -8.59859,0.330627 -3.34522,-0.494951 -6.38813,-2.221241 -9.59066,-3.307114 -3.63156,-1.231339 -7.17823,-2.770983 -10.91357,-3.63784 -4.0093,-0.930458 -8.13269,-1.33711 -12.23638,-1.653582 -5.60655,-0.432587 -16.86634,-0.330627 -16.86634,-0.330627 h -19.84278 l -14.55141,-0.330627 c 0,0 -5.8769,-0.104435 -7.27568,1.984209 z"
           id="path853"
           inkscape:connector-curvature="0"
           sodipodi:nodetypes="sssssssssssssssssssssccccssssssscccs" />
        <path
           style="fill:#d5e2ff;fill-opacity:1;stroke:#000000;stroke-width:1.30955768px;stroke-linecap:butt;stroke-linejoin:miter;stroke-opacity:1"
           d="m 146.26758,-76.795935 c 1.2108,-2.014282 3.36542,-3.392473 5.45679,-4.464636 2.84359,-1.457779 6.09294,-2.055086 9.26003,-2.480348 10.43421,-1.401008 21.12124,-1.34196 31.58312,-0.165313 5.06201,0.569342 10.32215,1.201988 14.88209,3.472477 3.46827,1.726933 7.00652,4.077376 8.92921,7.441072 1.6908,2.958005 2.11809,6.711431 1.65358,10.086754 -0.72951,5.301113 -3.63725,10.220153 -6.77959,14.551385 -2.70228,3.724664 -6.16729,7.014291 -10.08675,9.425331 -3.00025,1.845578 -9.09463,3.472487 -9.92144,3.63785 -0.82677,0.165363 -14.06062,1.365748 -20.83496,-0.165363 -4.44966,-1.005701 -8.87245,-2.897057 -12.40179,-5.787486 -3.01925,-2.472661 -5.08003,-5.997217 -6.94496,-9.425331 -2.30904,-4.244517 -4.05226,-8.848115 -5.12601,-13.559241 -0.56558,-2.481407 -0.80216,-5.065269 -0.66145,-7.606411 0.0931,-1.683744 0.12325,-3.515429 0.99213,-4.96074 z"
           id="path855"
           inkscape:connector-curvature="0"
           sodipodi:nodetypes="ssssssssssssssss" />
        <path
           style="fill:#d5e2ff;fill-opacity:1;stroke:#000000;stroke-width:1.30955768px;stroke-linecap:butt;stroke-linejoin:miter;stroke-opacity:1"
           d="m 239.46422,-72.446306 c 1.53287,-2.553719 4.03133,-4.486745 6.54776,-6.080057 2.83725,-1.796424 6.12318,-2.825378 9.35393,-3.741631 3.50143,-0.99302 7.13105,-1.557809 10.75711,-1.870766 7.53311,-0.650168 15.14387,-0.571718 22.68336,0 4.63893,0.35191 9.40704,0.564887 13.7971,2.10463 2.20798,0.7744 4.66407,1.645118 6.08018,3.507767 1.51039,1.986654 1.75584,4.756355 1.87081,7.249309 0.24748,5.363798 -0.55617,10.925176 -2.57236,15.901779 -1.8919,4.669823 -4.95401,8.972397 -8.65253,12.394017 -3.38561,3.132134 -7.53127,5.616694 -11.92624,7.0155 -4.39813,1.399805 -12.62793,1.169237 -13.7971,1.169237 -1.16933,0 -8.09359,0.165017 -11.92644,-0.935388 -3.8873,-1.11605 -7.60334,-3.080307 -10.75697,-5.612397 -3.96901,-3.186786 -7.34952,-7.243063 -9.82166,-11.692479 -1.95149,-3.512301 -3.62749,-7.442231 -3.74168,-11.458629 -0.0777,-2.740479 0.69378,-5.600256 2.10473,-7.950892 z"
           id="path857"
           inkscape:connector-curvature="0"
           sodipodi:nodetypes="sssssssssssssssss" />
      </g>
      <path
         sodipodi:nodetypes="cssssssssssc"
         inkscape:connector-curvature="0"
         id="path875"
         d="m 150.8944,-86.526304 c 0,0 7.73861,-3.63685 11.9057,-4.299292 3.48554,-0.554098 7.08096,-0.109384 10.58279,0.330627 8.06735,1.013313 15.78869,3.970546 23.81145,5.291422 4.04805,0.666501 8.53904,3.10062 12.23637,1.322806 1.29534,-0.622847 2.40037,-2.203077 2.31489,-3.63784 -0.0931,-1.563996 -1.66333,-2.121608 -2.97634,-2.976437 -2.7792,-1.809442 -6.3423,-2.639227 -9.59067,-3.307114 -5.55854,-1.142891 -11.23167,-1.64101 -16.86634,-2.314985 -5.3913,-0.644871 -10.79518,-2.118093 -16.20499,-1.653532 -2.85146,0.245001 -5.892,0.719411 -8.26791,2.314985 -3.13037,2.102205 -6.94495,8.92936 -6.94495,8.92936 z"
         style="fill:#000000;fill-opacity:1;stroke:#000000;stroke-width:1.30955768px;stroke-linecap:butt;stroke-linejoin:miter;stroke-opacity:1" />
      <path
         style="fill:#000000;fill-opacity:1;stroke:#000000;stroke-width:1.30955768px;stroke-linecap:butt;stroke-linejoin:miter;stroke-opacity:1"
         d="m 303.13596,-87.849159 c 0,0 -7.7386,-3.63685 -11.90569,-4.299293 -3.48555,-0.554097 -7.08097,-0.109384 -10.5828,0.330628 -8.06735,1.013313 -15.78869,3.970546 -23.81144,5.291421 -4.04806,0.666501 -8.53905,3.100621 -12.23638,1.322806 -1.29534,-0.622846 -2.40036,-2.203076 -2.31489,-3.63784 0.0931,-1.563995 1.66334,-2.121607 2.97634,-2.976437 2.7792,-1.809441 6.3423,-2.639227 9.59067,-3.307114 5.55854,-1.142891 11.23167,-1.641009 16.86634,-2.314984 5.3913,-0.644872 10.79518,-2.118093 16.20499,-1.653532 2.85146,0.245 5.892,0.719411 8.26791,2.314984 3.13037,2.102205 6.94495,8.929361 6.94495,8.929361 z"
         id="path877"
         inkscape:connector-curvature="0"
         sodipodi:nodetypes="cssssssssssc" />
      <path
         sodipodi:nodetypes="cssssssssssc"
         inkscape:connector-curvature="0"
         id="path879"
         d="m 206.13919,-19.946541 c 0,0 -1.48282,4.187681 -1.47159,5.76603 0.01,1.085675 0.29252,2.400066 1.16932,3.040038 2.20753,1.6107189 5.51435,-0.112354 8.18471,0.467729 1.47114,0.319738 2.82954,1.0347441 4.20931,1.636951 2.77984,1.2132237 3.35809,3.061717 6.31394,3.7415817 2.43095,0.559146 7.01454,1.099286 9.35403,0.2336168 2.02207,-0.7480194 4.40902,-3.1994619 6.31389,-4.2092609 1.57048,-0.8325076 2.03187,-0.9167976 3.74153,-1.4031366 2.11136,-0.600623 4.75613,-0.324193 6.31404,-1.870766 1.33003,-1.320232 2.02138,-3.544344 1.63695,-5.378533 -0.44248,-2.110124 -1.72896,-3.257272 -1.72896,-3.257272"
         style="fill:none;stroke:#000000;stroke-width:2.79647279;stroke-linecap:round;stroke-linejoin:miter;stroke-miterlimit:4;stroke-dasharray:none;stroke-opacity:1" />
      <g
         transform="matrix(4.9495095,0,0,4.9495095,-2949.5424,811.37644)"
         id="g933">
        <path
           style="fill:none;stroke:#000000;stroke-width:0.1367788;stroke-linecap:round;stroke-linejoin:miter;stroke-miterlimit:4;stroke-dasharray:none;stroke-opacity:1"
           d="m 645.93227,-179.07505 c 0,0 0.81107,-0.82349 1.31013,-1.09882 0.68655,-0.37876 1.46522,-0.59726 2.2399,-0.71846 0.82117,-0.12847 1.66854,-0.10155 2.49347,0 0.98003,0.12065 2.00897,0.45329 2.87383,0.92977 0.75053,0.4135 1.21739,0.86525 1.85954,1.5637 0.23587,0.25656 0.25357,1.0143 0.25357,1.0143"
           id="path885"
           inkscape:connector-curvature="0"
           sodipodi:nodetypes="csssssc" />
        <path
           style="fill:none;stroke:#000000;stroke-width:0.4214052;stroke-linecap:round;stroke-linejoin:miter;stroke-miterlimit:4;stroke-dasharray:none;stroke-opacity:1"
           d="m 645.80549,-178.0185 c 0,0 0.76319,-0.41824 1.14108,-0.63393 0.41127,-0.23475 0.78796,-0.53757 1.2256,-0.71846 0.72628,-0.30019 1.50022,-0.51315 2.28216,-0.59167 0.78607,-0.0789 1.60462,-0.0815 2.36668,0.12679 0.73543,0.20104 1.41379,0.60567 2.02859,1.05655 0.4177,0.30634 0.71018,0.75637 1.09882,1.09882 0.12866,0.11337 0.40666,0.3151 0.40666,0.3151"
           id="path887"
           inkscape:connector-curvature="0"
           sodipodi:nodetypes="cssssssc" />
        <path
           style="fill:none;stroke:#000000;stroke-width:0.31071717;stroke-linecap:butt;stroke-linejoin:miter;stroke-miterlimit:4;stroke-dasharray:none;stroke-opacity:1"
           d="m 648.55253,-179.28636 c -0.13124,0.11803 -0.21325,0.29303 -0.25357,0.46488 -0.0419,0.17843 -0.0186,0.37049 0.0211,0.54941 0.0315,0.14176 0.0456,0.32506 0.16905,0.40149 0.28206,0.17459 0.66144,-0.0653 0.99316,-0.0634 0.74874,0.004 1.49201,0.13306 2.2399,0.16905 0.33778,0.0162 0.74295,0.22295 1.01429,0.0211 0.21117,-0.15707 0.19434,-0.4981 0.21131,-0.76072 0.0128,-0.19881 -0.0233,-0.40208 -0.0845,-0.59167 -0.0513,-0.15891 -0.11869,-0.32152 -0.23245,-0.44376 -0.11852,-0.12734 -0.28117,-0.2128 -0.44375,-0.2747 -0.26731,-0.10177 -0.55929,-0.14115 -0.84524,-0.14792 -0.56074,-0.0133 -1.56371,0.21131 -1.66936,0.21131 -0.10566,0 -0.81941,0.1946 -1.11995,0.46489 z"
           id="path889"
           inkscape:connector-curvature="0"
           sodipodi:nodetypes="ssssssssssssss" />
        <circle
           style="fill:#000000;fill-opacity:1;stroke-width:0.31071714;stroke-linecap:round;stroke-miterlimit:4;stroke-dasharray:none"
           id="path891"
           cx="650.53522"
           cy="-178.82214"
           r="1.098233" />
        <circle
           style="fill:#ffffff;fill-opacity:1;stroke-width:0.31071714;stroke-linecap:round;stroke-miterlimit:4;stroke-dasharray:none"
           id="path893"
           cx="649.98981"
           cy="-179.17328"
           r="0.47814226" />
      </g>
      <g
         transform="matrix(-4.9495095,0,0,4.9495095,3404.825,810.25396)"
         id="g945">
        <path
           sodipodi:nodetypes="csssssc"
           inkscape:connector-curvature="0"
           id="path935"
           d="m 645.93227,-179.07505 c 0,0 0.81107,-0.82349 1.31013,-1.09882 0.68655,-0.37876 1.46522,-0.59726 2.2399,-0.71846 0.82117,-0.12847 1.66854,-0.10155 2.49347,0 0.98003,0.12065 2.00897,0.45329 2.87383,0.92977 0.75053,0.4135 1.21739,0.86525 1.85954,1.5637 0.23587,0.25656 0.25357,1.0143 0.25357,1.0143"
           style="fill:none;stroke:#000000;stroke-width:0.1367788;stroke-linecap:round;stroke-linejoin:miter;stroke-miterlimit:4;stroke-dasharray:none;stroke-opacity:1" />
        <path
           sodipodi:nodetypes="cssssssc"
           inkscape:connector-curvature="0"
           id="path937"
           d="m 645.80549,-178.0185 c 0,0 0.76319,-0.41824 1.14108,-0.63393 0.41127,-0.23475 0.78796,-0.53757 1.2256,-0.71846 0.72628,-0.30019 1.50022,-0.51315 2.28216,-0.59167 0.78607,-0.0789 1.60462,-0.0815 2.36668,0.12679 0.73543,0.20104 1.41379,0.60567 2.02859,1.05655 0.4177,0.30634 0.71018,0.75637 1.09882,1.09882 0.12866,0.11337 0.40666,0.3151 0.40666,0.3151"
           style="fill:none;stroke:#000000;stroke-width:0.4214052;stroke-linecap:round;stroke-linejoin:miter;stroke-miterlimit:4;stroke-dasharray:none;stroke-opacity:1" />
        <path
           sodipodi:nodetypes="ssssssssssssss"
           inkscape:connector-curvature="0"
           id="path939"
           d="m 648.55253,-179.28636 c -0.13124,0.11803 -0.21325,0.29303 -0.25357,0.46488 -0.0419,0.17843 -0.0186,0.37049 0.0211,0.54941 0.0315,0.14176 0.0456,0.32506 0.16905,0.40149 0.28206,0.17459 0.66144,-0.0653 0.99316,-0.0634 0.74874,0.004 1.49201,0.13306 2.2399,0.16905 0.33778,0.0162 0.74295,0.22295 1.01429,0.0211 0.21117,-0.15707 0.19434,-0.4981 0.21131,-0.76072 0.0128,-0.19881 -0.0233,-0.40208 -0.0845,-0.59167 -0.0513,-0.15891 -0.11869,-0.32152 -0.23245,-0.44376 -0.11852,-0.12734 -0.28117,-0.2128 -0.44375,-0.2747 -0.26731,-0.10177 -0.55929,-0.14115 -0.84524,-0.14792 -0.56074,-0.0133 -1.56371,0.21131 -1.66936,0.21131 -0.10566,0 -0.81941,0.1946 -1.11995,0.46489 z"
           style="fill:none;stroke:#000000;stroke-width:0.31071717;stroke-linecap:butt;stroke-linejoin:miter;stroke-miterlimit:4;stroke-dasharray:none;stroke-opacity:1" />
        <circle
           r="1.098233"
           cy="-178.82214"
           cx="650.53522"
           id="circle941"
           style="fill:#000000;fill-opacity:1;stroke-width:0.31071714;stroke-linecap:round;stroke-miterlimit:4;stroke-dasharray:none" />
        <circle
           r="0.47814226"
           cy="-179.17328"
           cx="649.98981"
           id="circle943"
           style="fill:#ffffff;fill-opacity:1;stroke-width:0.31071714;stroke-linecap:round;stroke-miterlimit:4;stroke-dasharray:none" />
      </g>
      <g
         style="fill:#fff0d4;fill-opacity:1"
         transform="matrix(4.9495095,0,0,4.9495095,-2949.5424,811.37644)"
         id="g971">
        <path
           sodipodi:nodetypes="ssssssss"
           inkscape:connector-curvature="0"
           id="path955"
           d="m 622.20352,-179.47477 c -0.32402,-0.0928 -0.75219,-0.0923 -1.00227,0.13363 -0.35674,0.32235 -0.30834,0.92306 -0.33409,1.40317 -0.0661,1.23309 0.44723,2.49109 0.79846,3.67495 0.42216,1.42295 1.16048,3.22147 2.07944,4.38703 0.39198,0.49716 1.64798,1.64673 1.65897,1.01372 0.0254,-1.4637 -1.33761,-7.22556 -1.66373,-9.34297 -0.10114,-0.6567 -0.89802,-1.08657 -1.53678,-1.26953 z"
           style="fill:#fff0d4;fill-opacity:1;stroke:#000000;stroke-width:0.565;stroke-linecap:butt;stroke-linejoin:miter;stroke-miterlimit:4;stroke-dasharray:none;stroke-opacity:1" />
        <path
           sodipodi:nodetypes="cssssc"
           inkscape:connector-curvature="0"
           id="path957"
           d="m 622.96213,-177.05383 c 0,0 -0.57636,0.14785 -0.74645,0.53789 -0.11574,0.26541 -0.11064,0.60106 0,0.86863 0.4009,0.96951 0.28943,0.94351 0.46771,1.40317 0.31729,0.81806 0.75179,1.58736 1.06907,2.40542 0.12734,0.32833 0.73569,0.97864 0.73569,0.97864"
           style="fill:#fff0d4;fill-opacity:1;stroke:#000000;stroke-width:0.565;stroke-linecap:butt;stroke-linejoin:miter;stroke-miterlimit:4;stroke-dasharray:none;stroke-opacity:1" />
      </g>
      <path
         sodipodi:nodetypes="csssc"
         inkscape:connector-curvature="0"
         id="path963"
         d="m 199.84005,26.577611 c 0,0 8.96158,5.044738 13.88995,6.28355 6.32226,1.589189 13.10779,2.540435 19.51201,1.322856 4.79578,-0.911749 8.75534,-4.328792 13.2286,-6.283551 0.54395,-0.237576 1.65349,-0.661403 1.65349,-0.661403"
         style="fill:none;stroke:#000000;stroke-width:2.30152202;stroke-linecap:butt;stroke-linejoin:miter;stroke-miterlimit:4;stroke-dasharray:none;stroke-opacity:1" />
      <path
         sodipodi:nodetypes="csscsscsc"
         inkscape:connector-curvature="0"
         id="path965"
         d="m 213.03945,39.698463 c 0,0 5.56112,-1.557165 8.41862,-1.870815 2.28578,-0.25094 4.60671,-0.187092 6.89858,4.9e-5 2.87378,0.234607 8.53548,1.403087 8.53548,1.403087 0,0 -4.57795,3.003066 -6.19699,5.144669 -1.56785,2.073993 -0.95911,5.743559 -3.15704,7.132392 -1.21956,0.770638 -4.32622,-0.116809 -4.32622,-0.116809 0,0 -2.27648,-5.079137 -4.09231,-7.132392 -1.67827,-1.89774 -6.08012,-4.560082 -6.08012,-4.560082 z"
         style="fill:#000000;fill-opacity:1;stroke:#000000;stroke-width:1.30955768px;stroke-linecap:butt;stroke-linejoin:miter;stroke-opacity:1" />
      <g
         style="fill:#fff0d4;fill-opacity:1"
         transform="matrix(-4.9495095,0,0,4.9495095,3401.5355,805.55752)"
         id="g977">
        <path
           style="fill:#fff0d4;fill-opacity:1;stroke:#000000;stroke-width:0.565;stroke-linecap:butt;stroke-linejoin:miter;stroke-miterlimit:4;stroke-dasharray:none;stroke-opacity:1"
           d="m 622.20352,-179.47477 c -0.32402,-0.0928 -0.75219,-0.0923 -1.00227,0.13363 -0.35674,0.32235 -0.30834,0.92306 -0.33409,1.40317 -0.0661,1.23309 0.44723,2.49109 0.79846,3.67495 0.42216,1.42295 1.16048,3.22147 2.07944,4.38703 0.39198,0.49716 1.64798,1.64673 1.65897,1.01372 0.0254,-1.4637 -1.33761,-7.22556 -1.66373,-9.34297 -0.10114,-0.6567 -0.89802,-1.08657 -1.53678,-1.26953 z"
           id="path973"
           inkscape:connector-curvature="0"
           sodipodi:nodetypes="ssssssss" />
        <path
           style="fill:#fff0d4;fill-opacity:1;stroke:#000000;stroke-width:0.565;stroke-linecap:butt;stroke-linejoin:miter;stroke-miterlimit:4;stroke-dasharray:none;stroke-opacity:1"
           d="m 622.96213,-177.05383 c 0,0 -0.57636,0.14785 -0.74645,0.53789 -0.11574,0.26541 -0.11064,0.60106 0,0.86863 0.4009,0.96951 0.28943,0.94351 0.46771,1.40317 0.31729,0.81806 0.75179,1.58736 1.06907,2.40542 0.12734,0.32833 0.73569,0.97864 0.73569,0.97864"
           id="path975"
           inkscape:connector-curvature="0"
           sodipodi:nodetypes="cssssc" />
      </g>
      <path
         sodipodi:nodetypes="cssssc"
         inkscape:connector-curvature="0"
         id="path1052"
         d="m 187.38447,17.832124 c 0,0 15.24811,2.065158 22.01434,3.623203 4.43706,1.021713 8.70309,2.90565 13.22916,3.401801 3.75934,0.412102 7.60682,0.231229 11.33929,-0.377984 9.9927,-1.631007 19.21469,-6.522608 29.10416,-8.693441 0.87018,-0.191013 0,0 0,0"
         style="fill:none;stroke:#000000;stroke-width:2.06500006;stroke-linecap:round;stroke-linejoin:miter;stroke-miterlimit:4;stroke-dasharray:none;stroke-opacity:1" />
    </g>
    <g
       transform="translate(-58.888162,232.6441)"
       id="g1629">
      <path
         sodipodi:nodetypes="csccc"
         inkscape:connector-curvature="0"
         id="path4813"
         d="m 152.07636,-66.887481 c 0,0 -3.98575,1.389314 -5.61266,2.672694 -1.16886,0.922047 -2.80633,3.474503 -2.80633,3.474503 l 10.15624,0.133636 z"
         style="fill:none;stroke:#000000;stroke-width:1.16499996;stroke-linecap:butt;stroke-linejoin:miter;stroke-miterlimit:4;stroke-dasharray:none;stroke-opacity:1" />
      <path
         style="fill:none;stroke:#000000;stroke-width:1.16499996;stroke-linecap:butt;stroke-linejoin:miter;stroke-miterlimit:4;stroke-dasharray:none;stroke-opacity:1"
         d="m 181.05381,-67.42202 c 0,0 4.78756,1.389314 6.41447,2.672694 1.16886,0.922047 2.80633,3.474503 2.80633,3.474503 l -10.15624,0.133636 z"
         id="path4815"
         inkscape:connector-curvature="0"
         sodipodi:nodetypes="csccc" />
    </g>
  </g>
</svg>
